<svg width="441" height="92" viewBox="0 0 441 92" fill="none" xmlns="http://www.w3.org/2000/svg">
<path d="M24.2843 5.27999C24.7963 5.216 25.5963 5.184 26.6843 5.184H29.1803C33.4683 5.184 37.6603 5.504 41.7563 6.144C43.8683 6.46399 45.5003 6.78399 46.6523 7.10399V20.832C45.6923 20.768 44.0923 20.608 41.8523 20.352C38.8443 20.032 36.2203 19.872 33.9803 19.872C31.4843 19.872 29.4683 19.968 27.9323 20.16C26.4603 20.288 25.2443 20.544 24.2843 20.928V5.27999ZM29.1803 72.768C22.7803 72.768 17.6923 72.224 13.9163 71.136C10.2043 69.984 7.38825 68.096 5.46825 65.472C3.61225 62.976 2.33225 59.68 1.62825 55.584C0.98825 51.424 0.66825 45.888 0.66825 38.976C0.66825 32.896 0.89225 27.968 1.34025 24.192C1.85225 20.416 2.74825 17.248 4.02825 14.688C5.37225 12.064 7.32425 10.048 9.88425 8.64C12.5083 7.168 15.9643 6.176 20.2523 5.664V38.976C20.2523 42.56 20.3163 46.016 20.4443 49.344C20.5723 51.904 21.0523 53.824 21.8843 55.104C22.7803 56.384 24.1563 57.184 26.0123 57.504C27.8043 57.888 30.4603 58.08 33.9803 58.08C37.6283 58.08 40.7323 57.92 43.2923 57.6C44.3163 57.536 45.5643 57.376 47.0363 57.12V71.04C43.9003 71.744 40.3483 72.224 36.3803 72.48C34.2043 72.672 31.8043 72.768 29.1803 72.768ZM56.1908 0.671997H73.9508V72H56.1908V0.671997ZM109.934 41.664C109.934 40 109.87 38.816 109.742 38.112C109.614 37.408 109.23 36.896 108.59 36.576C108.014 36.256 106.926 36.032 105.326 35.904C104.366 35.84 102.286 35.808 99.0863 35.808C96.0143 35.808 93.1663 35.936 90.5423 36.192L85.4543 36.48V24C91.4703 22.848 97.9663 22.272 104.942 22.272C110.318 22.272 114.51 22.656 117.518 23.424C120.59 24.192 122.894 25.408 124.43 27.072C125.774 28.608 126.638 30.56 127.022 32.928C127.47 35.296 127.694 38.592 127.694 42.816V72H109.934V41.664ZM95.7263 72.672C91.3103 72.672 88.0463 71.456 85.9343 69.024C83.8223 66.528 82.7663 62.784 82.7663 57.792C82.7663 54.72 82.9903 52.256 83.4383 50.4C83.8863 48.48 84.6543 46.976 85.7422 45.888C86.8303 44.736 88.3343 43.936 90.2543 43.488C92.1743 42.976 94.7023 42.72 97.8383 42.72L105.902 42.912V51.456H104.942C103.47 51.456 102.51 51.488 102.062 51.552C100.782 51.616 100.11 52.224 100.046 53.376C99.9823 53.76 99.9503 54.56 99.9503 55.776C99.9503 56.736 99.9823 57.472 100.046 57.984C100.174 58.496 100.366 58.912 100.622 59.232C100.942 59.68 101.422 59.936 102.062 60C102.958 60.128 103.918 60.192 104.942 60.192H105.902V69.984C104.494 71.072 102.99 71.776 101.39 72.096C99.8543 72.48 97.9663 72.672 95.7263 72.672ZM174.698 36.384C173.482 36.32 171.818 36.16 169.706 35.904C165.738 35.52 162.538 35.328 160.106 35.328H156.938V22.272C161.482 22.272 165.802 22.592 169.898 23.232L174.698 24.096V36.384ZM160.778 57.12C160.778 56.16 160.618 55.552 160.298 55.296C159.978 55.04 159.306 54.848 158.281 54.72L147.914 53.28C145.354 52.896 143.274 52.288 141.674 51.456C140.138 50.624 138.986 49.504 138.218 48.096C137.45 46.88 136.938 45.408 136.682 43.68C136.426 41.952 136.298 39.808 136.298 37.248C136.298 32 137.866 28.16 141.002 25.728C143.626 23.808 147.594 22.688 152.906 22.368V37.44C152.906 38.4 153.034 39.04 153.29 39.36C153.546 39.616 154.346 39.84 155.69 40.032L167.21 41.568C168.874 41.76 170.314 42.112 171.53 42.624C172.746 43.072 173.77 43.776 174.602 44.736C176.458 46.784 177.386 50.72 177.386 56.544C177.386 62.688 175.818 66.976 172.682 69.408C169.93 71.456 165.962 72.544 160.778 72.672V57.12ZM156.746 72.768C151.626 72.704 147.146 72.384 143.306 71.808L137.834 70.944V58.656C140.394 58.912 143.85 59.168 148.202 59.424C150.634 59.552 152.362 59.616 153.386 59.616H156.746V72.768ZM222.51 36.384C221.294 36.32 219.63 36.16 217.518 35.904C213.55 35.52 210.35 35.328 207.918 35.328H204.75V22.272C209.294 22.272 213.614 22.592 217.71 23.232L222.51 24.096V36.384ZM208.59 57.12C208.59 56.16 208.43 55.552 208.11 55.296C207.79 55.04 207.118 54.848 206.094 54.72L195.726 53.28C193.166 52.896 191.086 52.288 189.486 51.456C187.95 50.624 186.798 49.504 186.03 48.096C185.262 46.88 184.75 45.408 184.494 43.68C184.238 41.952 184.11 39.808 184.11 37.248C184.11 32 185.678 28.16 188.814 25.728C191.438 23.808 195.406 22.688 200.718 22.368V37.44C200.718 38.4 200.846 39.04 201.102 39.36C201.358 39.616 202.158 39.84 203.502 40.032L215.022 41.568C216.686 41.76 218.126 42.112 219.342 42.624C220.558 43.072 221.582 43.776 222.414 44.736C224.27 46.784 225.198 50.72 225.198 56.544C225.198 62.688 223.63 66.976 220.494 69.408C217.742 71.456 213.774 72.544 208.59 72.672V57.12ZM204.558 72.768C199.438 72.704 194.958 72.384 191.118 71.808L185.646 70.944V58.656C188.206 58.912 191.662 59.168 196.014 59.424C198.446 59.552 200.174 59.616 201.198 59.616H204.558V72.768ZM280.307 21.12C278.195 20.864 274.483 20.512 269.171 20.064C266.227 19.936 263.859 19.872 262.067 19.872C259.763 19.872 257.587 19.936 255.539 20.064V5.184H257.939C263.187 5.184 268.627 5.536 274.259 6.23999C276.051 6.49599 278.067 6.848 280.307 7.296V21.12ZM264.467 52.512C264.467 51.168 264.371 50.208 264.179 49.632C263.987 48.992 263.667 48.576 263.219 48.384C262.771 48.128 262.003 47.936 260.915 47.808L249.107 46.368C242.131 45.6 237.427 43.328 234.995 39.552C233.907 37.952 233.171 36 232.787 33.696C232.403 31.392 232.211 28.576 232.211 25.248C232.211 18.144 234.035 13.024 237.683 9.888C240.627 7.328 245.235 5.824 251.507 5.376V24.672C251.507 25.504 251.539 26.208 251.603 26.784C251.667 27.36 251.795 27.808 251.987 28.128C252.179 28.512 252.499 28.8 252.947 28.992C253.395 29.12 254.067 29.216 254.963 29.28L268.211 30.912C270.963 31.296 273.203 31.776 274.931 32.352C276.659 32.928 278.131 33.824 279.347 35.04C282.227 38.048 283.667 43.392 283.667 51.072C283.667 59.2 281.875 64.896 278.291 68.16C276.691 69.632 274.739 70.72 272.435 71.424C270.195 72.064 267.539 72.48 264.467 72.672V52.512ZM259.379 72.768C252.979 72.768 247.027 72.48 241.523 71.904C238.259 71.584 235.795 71.264 234.131 70.944V56.928C237.907 57.248 242.227 57.568 247.091 57.888C250.163 58.016 252.339 58.08 253.619 58.08C257.075 58.08 259.347 57.984 260.435 57.792V72.768H259.379ZM306.736 71.712C300.976 71.712 297.104 69.952 295.12 66.432C294.224 64.896 293.616 63.04 293.296 60.864C292.976 58.624 292.816 55.904 292.816 52.704V23.04H310.576V45.216C310.576 48.608 310.608 50.848 310.672 51.936C310.8 53.6 310.992 54.752 311.248 55.392C311.504 56.096 311.92 56.544 312.496 56.736C313.072 56.864 314.096 56.928 315.568 56.928H316.528V68.832C313.968 70.752 310.704 71.712 306.736 71.712ZM313.36 91.776C310.032 91.776 306.128 91.584 301.648 91.2L296.08 90.624V78.24H308.944C311.248 78.24 313.488 78.176 315.664 78.048C317.2 77.92 318.32 77.6 319.024 77.088C319.792 76.64 320.24 75.84 320.368 74.688C320.496 73.152 320.56 71.52 320.56 69.792V23.04H338.32V66.624C338.32 71.744 338.096 75.712 337.648 78.528C337.264 81.344 336.336 83.68 334.864 85.536C333.2 87.648 330.672 89.216 327.28 90.24C323.888 91.264 319.248 91.776 313.36 91.776ZM376.997 48.864C376.997 45.472 376.965 43.232 376.901 42.144C376.773 40.352 376.613 39.168 376.421 38.592C376.165 37.952 375.717 37.568 375.077 37.44C374.437 37.248 373.413 37.152 372.005 37.152H371.045V25.152C373.541 23.296 376.805 22.368 380.837 22.368C386.597 22.368 390.469 24.128 392.453 27.648C393.349 29.184 393.957 31.072 394.277 33.312C394.597 35.488 394.757 38.176 394.757 41.376V72H376.997V48.864ZM349.253 23.04H367.013V72H349.253V23.04ZM437.467 36.192C435.867 35.936 433.563 35.808 430.555 35.808C428.571 35.808 427.163 35.936 426.331 36.192V22.272C430.875 22.336 435.579 22.912 440.443 24V36.48L437.467 36.192ZM425.659 72.768C420.667 72.768 416.699 72.16 413.755 70.944C410.811 69.728 408.635 67.936 407.227 65.568C405.947 63.52 405.115 61.12 404.731 58.368C404.411 55.616 404.251 52.032 404.251 47.616C404.251 43.584 404.411 40.224 404.731 37.536C405.051 34.848 405.723 32.48 406.747 30.432C407.963 28.064 409.787 26.24 412.219 24.96C414.715 23.616 418.075 22.784 422.299 22.464V47.52C422.299 50.336 422.363 52.448 422.491 53.856C422.683 55.264 423.035 56.352 423.547 57.12C424.123 57.888 424.923 58.432 425.947 58.752C427.035 59.072 428.571 59.232 430.555 59.232C433.947 59.232 436.283 59.136 437.563 58.944L440.827 58.56V71.04C436.091 72.192 431.035 72.768 425.659 72.768Z" fill="white"/>
</svg>
